<svg id="Capa_1" enable-background="new 0 0 512 512" height="512" viewBox="0 0 512 512" width="512" xmlns="http://www.w3.org/2000/svg"><g><g><path d="m139.062 441.42h-90.873v-128.073c0-2.014 1.21-3.831 3.069-4.607l36.598-15.28c3.692-1.541 7.848-1.541 11.54 0l36.598 15.28c1.859.776 3.069 2.593 3.069 4.607v128.073z" fill="#4a80aa"/></g><g><path d="m135.993 308.74-36.598-15.28c-3.692-1.542-7.848-1.542-11.54 0l-16.267 6.791 44.21 18.597c1.859.776 3.069 2.593 3.069 4.607v117.965h20.195v-128.074c0-2.013-1.21-3.83-3.069-4.606z" fill="#407093"/></g><g><g><path d="m200.253 14.284 42.934.028c1.989.001 3.899.777 5.327 2.162l154.438 149.874-111.906-.073c-3.582-.002-6.897-1.896-8.719-4.981l-84.408-142.923c-1.067-1.807.236-4.088 2.334-4.087z" fill="#e7ecf6"/></g></g><g><g><path d="m360.541 166.321-154.438-149.875c-1.427-1.385-3.338-2.161-5.327-2.162l42.411.028c1.989.001 3.899.777 5.327 2.162l154.438 149.874z" fill="#d8e2f1"/></g></g><g><g><path d="m488.208 175.272-36.93-14.912c-5.069-2.047-10.485-3.094-15.952-3.085l-195.405.306c-.834.001-1.666.064-2.49.188l-70.602 12.352c-1.626.284-3.296-.114-4.618-1.102l-50.189-37.505c-.777-.58-1.721-.893-2.69-.892l-24.157.042c-2.374.004-3.795 2.642-2.491 4.627l34.496 52.521c1.307 1.99 1.312 4.565.011 6.56l-34.313 52.641c-1.296 1.989.133 4.622 2.507 4.618l24.158-.042c.969-.002 1.912-.318 2.686-.901l50.058-37.68c1.318-.992 2.988-1.397 4.614-1.118l70.644 12.107c.825.121 1.657.18 2.491.179l195.405-.306c5.466-.009 10.879-1.076 15.941-3.14l36.878-15.04c13.646-5.566 13.612-24.9-.052-30.418z" fill="#e7ecf6"/></g></g><g><g><path d="m488.208 175.272-10.402-4.2c-.391 5.817-3.782 11.449-10.176 14.057l-36.878 15.04c-5.062 2.064-10.475 3.13-15.941 3.14l-195.405.306c-.833.001-1.666-.058-2.49-.179l-57.268-9.814c-10.164-1.742-20.595.786-28.834 6.988l-34.727 26.14-13.208 20.263c-1.296 1.989.133 4.622 2.507 4.618l24.158-.042c.969-.002 1.912-.318 2.686-.901l50.058-37.68c1.318-.992 2.988-1.397 4.614-1.118l70.644 12.107c.825.121 1.657.18 2.491.179l195.405-.306c5.466-.009 10.879-1.076 15.941-3.14l36.878-15.04c13.645-5.566 13.611-24.9-.053-30.418z" fill="#d8e2f1"/></g></g><g><g><path d="m200.253 367.727 42.934-.028c1.989-.001 3.899-.777 5.327-2.162l154.438-149.874-111.906.073c-3.582.002-6.897 1.896-8.719 4.981l-84.408 142.923c-1.067 1.807.236 4.088 2.334 4.087z" fill="#e7ecf6"/></g></g><g><g><path d="m360.541 215.69-154.438 149.875c-1.427 1.385-3.338 2.161-5.327 2.162l42.411-.028c1.989-.001 3.899-.777 5.327-2.162l154.438-149.874z" fill="#d8e2f1"/></g></g><g><path d="m494.512 497.716h-477.024c-5.523 0-10-4.477-10-10v-52.947c0-5.523 4.477-10 10-10h477.024c5.523 0 10 4.477 10 10v52.947c0 5.523-4.477 10-10 10z" fill="#4a80aa"/></g><g><path d="m494.528 424.769h-15.769v37.21c0 5.514-4.47 9.984-9.984 9.984h-461.287v15.769c0 5.514 4.47 9.984 9.984 9.984h477.055c5.514 0 9.984-4.47 9.984-9.984v-52.978c.001-5.515-4.469-9.985-9.983-9.985z" fill="#407093"/></g><g><path d="m48.189 329.639h90.873v47.566h-90.873z" fill="#90d8f9"/></g><g><path d="m118.867 329.639h20.195v47.566h-20.195z" fill="#75cef9"/></g><g><path d="m445.599 497.716h-200.419v-36.38c0-2.761 2.239-5 5-5h190.419c2.761 0 5 2.239 5 5z" fill="#90d8f9"/></g><g><path d="m245.18 471.963h200.419v25.753h-200.419z" fill="#75cef9"/></g><g><path d="m110.383 191.102-33.777 51.818c-2.104 3.226-2.27 7.333-.432 10.718 1.835 3.38 5.362 5.479 9.208 5.479h.017l24.16-.042c2.573-.005 5.122-.86 7.175-2.406l49.541-37.29 70.007 11.998c.062.011.125.02.187.029 1.189.174 2.423.255 3.579.256l27.142-.042-75.72 128.213c-1.858 3.147-1.886 7.073-.073 10.245 1.812 3.169 5.203 5.136 8.85 5.136h.01l42.937-.027c3.955-.004 7.696-1.523 10.534-4.277l38.12-36.994c2.967-2.88 3.038-7.621.158-10.589-2.88-2.967-7.621-3.038-10.589-.158l-38.12 36.994c-.031.031-.074.048-.116.048l-34.555.022 75.974-128.641 91.332-.142-69.114 67.071c-2.967 2.88-3.038 7.621-.158 10.589 1.468 1.513 3.419 2.273 5.374 2.273 1.878 0 3.76-.703 5.214-2.115l80.222-77.851 37.985-.059c6.46-.012 12.771-1.255 18.754-3.695l36.88-15.04c9.191-3.749 14.891-12.245 14.874-22.173-.018-9.928-5.747-18.403-14.952-22.12l-36.931-14.912c-5.964-2.408-12.247-3.629-18.677-3.629-.029 0-.06 0-.091 0l-38.606.065-142.977-138.753c-2.838-2.754-6.579-4.273-10.537-4.277l-42.932-.028c-.003 0-.006 0-.01 0-3.649 0-7.041 1.968-8.852 5.136-1.813 3.173-1.785 7.098.073 10.245l75.519 127.873-27.086.042c-1.2.003-2.406.095-3.585.271-.059.009-.119.019-.178.029l-69.964 12.24-49.674-37.121c-2.055-1.536-4.6-2.38-7.171-2.38-.004 0-.008 0-.012 0l-24.16.042c-3.851.008-7.377 2.12-9.203 5.51-1.825 3.391-1.646 7.497.469 10.716zm-2.04-52.991 49.385 36.903c2.962 2.216 6.754 3.122 10.393 2.482l70.499-12.333c.433-.061.877-.094 1.314-.095l100.039-.156c4.136-.007 7.483-3.364 7.476-7.5-.007-4.132-3.357-7.476-7.488-7.476-.004 0-.008 0-.012 0l-55.582.087-75.739-128.246 34.552.023c.045 0 .088.017.119.048l132.359 128.448c-2.946 1.011-5.063 3.801-5.058 7.09.007 4.131 3.358 7.475 7.488 7.475h.013l57.238-.097h.063c4.5 0 8.898.854 13.071 2.539l36.931 14.912c5.171 2.088 5.58 6.85 5.583 8.26.002 1.41-.391 6.174-5.554 8.28l-36.879 15.04c-4.188 1.707-8.604 2.578-13.125 2.586l-195.411.305c-.007 0-.014 0-.021 0-.426 0-.86-.03-1.293-.089l-70.537-12.089c-3.649-.628-7.429.293-10.383 2.517l-49.257 37.077-14.831.025 29.768-45.667c2.926-4.489 2.915-10.283-.026-14.76l-29.926-45.563z"/><ellipse cx="269.269" cy="190.266" rx="9.63" ry="9.63" transform="matrix(.995 -.102 .102 .995 -18.02 28.488)"/><ellipse cx="304.905" cy="190.243" rx="9.63" ry="9.629" transform="matrix(.3 -.954 .954 .3 31.978 424.06)"/><ellipse cx="339.902" cy="190.221" rx="9.63" ry="9.629" transform="matrix(.707 -.707 .707 .707 -34.952 296.061)"/><path d="m375.545 199.828c5.318-.003 9.627-4.317 9.624-9.636-.003-5.318-4.317-9.627-9.636-9.624-5.318.003-9.627 4.318-9.623 9.636s4.316 9.627 9.635 9.624z"/><path d="m494.528 417.281h-347.978v-32.588h4.461c4.136 0 7.488-3.352 7.488-7.488s-3.352-7.488-7.488-7.488h-4.461v-32.588h4.461c4.136 0 7.488-3.352 7.488-7.488s-3.352-7.488-7.488-7.488h-4.461v-8.805c0-5.05-3.011-9.571-7.671-11.517l-36.598-15.279c-5.501-2.297-11.81-2.297-17.309 0l-36.601 15.278c-4.661 1.946-7.671 6.467-7.671 11.517v8.805h-4.008c-4.136 0-7.488 3.352-7.488 7.488s3.352 7.488 7.488 7.488h4.008v32.588h-4.008c-4.136 0-7.488 3.352-7.488 7.488s3.352 7.488 7.488 7.488h4.008v32.588h-23.228c-9.634.001-17.472 7.839-17.472 17.473v52.978c0 9.634 7.838 17.472 17.472 17.472h24.836c4.136 0 7.488-3.352 7.488-7.488s-3.352-7.488-7.488-7.488h-24.836c-1.377 0-2.496-1.119-2.496-2.496v-52.978c0-1.377 1.119-2.496 2.496-2.496h477.055c1.377 0 2.496 1.119 2.496 2.496v52.978c0 1.377-1.119 2.496-2.496 2.496h-41.44v-28.899c0-6.882-5.599-12.48-12.48-12.48h-190.435c-6.882 0-12.48 5.599-12.48 12.48v28.899h-156.072c-4.136 0-7.488 3.352-7.488 7.488s3.352 7.488 7.488 7.488h412.907c9.634 0 17.472-7.838 17.472-17.472v-52.978c.001-9.634-7.837-17.472-17.471-17.472zm-362.955-47.564h-75.896v-32.588h75.896zm-40.832-69.346c1.833-.766 3.936-.764 5.769 0l35.063 14.639v7.141h-75.897v-7.141zm-35.065 84.322h75.897v32.588h-75.897zm297.06 79.131h37.673v26.403h-37.673zm-14.976 26.403h-37.943v-26.403h37.943zm-85.092-26.403h32.173v26.403h-32.173zm152.717 26.403v-26.403h32.726v26.403z"/></g></g></svg>