<svg id="icons" enable-background="new 0 0 64 64" height="512" viewBox="0 0 64 64" width="512" xmlns="http://www.w3.org/2000/svg"><g><g><path d="m36 9.5c0 1.1-.45 2.1-1.18 2.83-.72.721-1.72 1.17-2.82 1.17-2.2 0-3.99-1.789-4-3.99v-.01-1.59c1.86-.75 3.36-2.18 4.22-3.98 2.21.89 3.78 3.05 3.78 5.57z" fill="#ffce54"/></g><g><path d="m34.82 12.33c.73-.73 1.18-1.73 1.18-2.83 0-2.52-1.57-4.68-3.78-5.57-.86 1.8-2.36 3.23-4.22 3.98v1.59.01c.01 2.201 1.8 3.99 4 3.99 1.1 0 2.1-.449 2.82-1.17zm-4.82-11.83c4.98 0 9 4.031 9 9 0 3.861-3.13 7-7 7s-7-3.139-7-7v-4c2.77 0 5-2.23 5-5z" fill="#fc6e51"/></g><g><path d="m61 26.5h-58l29-6.99z" fill="#ccd1d9"/></g><g><path d="m32 16.5 29 7v3l-29-6.99-29 6.99v-3z" fill="#656d78"/></g><g><path d="m7 30.5h5v5h-5z" fill="#5d9cec"/></g><g><path d="m61 26.5v13.01h-58v-13.01zm-4 9v-5h-5v5zm-9 0v-5h-5v5zm-9 0v-5h-5v5zm-9 0v-5h-5v5zm-9 0v-5h-5v5zm-9 0v-5h-5v5z" fill="#e6e9ed"/></g><g><path d="m52 30.5h5v5h-5z" fill="#5d9cec"/></g><g><path d="m43 30.5h5v5h-5z" fill="#5d9cec"/></g><g><path d="m34 30.5h5v5h-5z" fill="#5d9cec"/></g><g><path d="m16 30.5h5v5h-5z" fill="#5d9cec"/></g><g><path d="m25 30.5h5v5h-5z" fill="#5d9cec"/></g><g><path d="m43 58.5h14v3h-14z" fill="#e6e9ed"/></g><g><path d="m43 55.5h14v3h-14z" fill="#ccd1d9"/></g><g><path d="m43 52.5h14v3h-14z" fill="#e6e9ed"/></g><g><path d="m43 49.5h14v3h-14z" fill="#ccd1d9"/></g><g><path d="m43 46.5h14v3h-14z" fill="#e6e9ed"/></g><g><path d="m43 43.51h14v2.99h-14z" fill="#ccd1d9"/></g><g><path d="m25 58.5h14v3h-14z" fill="#e6e9ed"/></g><g><path d="m25 55.5h14v3h-14z" fill="#ccd1d9"/></g><g><path d="m25 52.5h14v3h-14z" fill="#e6e9ed"/></g><g><path d="m25 49.5h14v3h-14z" fill="#ccd1d9"/></g><g><path d="m25 46.5h14v3h-14z" fill="#e6e9ed"/></g><g><path d="m25 43.51h14v2.99h-14z" fill="#ccd1d9"/></g><g><path d="m7 58.5h14v3h-14z" fill="#e6e9ed"/></g><g><path d="m7 55.5h14v3h-14z" fill="#ccd1d9"/></g><g><path d="m7 52.5h14v3h-14z" fill="#e6e9ed"/></g><g><path d="m7 43.51h14v2.99h-14z" fill="#ccd1d9"/></g><g><path d="m7 49.5h14v3h-14z" fill="#ccd1d9"/></g><g><path d="m7 46.5h14v3h-14z" fill="#e6e9ed"/></g><g><path d="m43 58.5v3h-4v-3-3-3-3-3-2.99h-14v2.99 3 3 3 3 3h-4v-3-3-3-3-3-2.99h-14v2.99 3 3 3 3 3h-4v-21.99h58v21.99h-4v-3-3-3-3-3-2.99h-14v2.99 3 3 3z" fill="#ed5565"/></g><g><path d="m63 63.5h-62c-.553 0-1-.447-1-1s.447-1 1-1h62c.553 0 1 .447 1 1s-.447 1-1 1z" fill="#656d78"/></g><path d="m7 30.5h5v5h-5z" fill="#5d9cec"/><g fill="#fff"><path d="m12 36h-5c-.276 0-.5-.223-.5-.5v-5c0-.275.224-.5.5-.5h5c.276 0 .5.225.5.5v5c0 .277-.224.5-.5.5zm-4.5-1h4v-4h-4z"/><path d="m21 36h-5c-.276 0-.5-.223-.5-.5v-5c0-.275.224-.5.5-.5h5c.276 0 .5.225.5.5v5c0 .277-.224.5-.5.5zm-4.5-1h4v-4h-4z"/><path d="m30 36h-5c-.276 0-.5-.223-.5-.5v-5c0-.275.224-.5.5-.5h5c.276 0 .5.225.5.5v5c0 .277-.224.5-.5.5zm-4.5-1h4v-4h-4z"/><path d="m39 36h-5c-.276 0-.5-.223-.5-.5v-5c0-.275.224-.5.5-.5h5c.276 0 .5.225.5.5v5c0 .277-.224.5-.5.5zm-4.5-1h4v-4h-4z"/><path d="m48 36h-5c-.276 0-.5-.223-.5-.5v-5c0-.275.224-.5.5-.5h5c.276 0 .5.225.5.5v5c0 .277-.224.5-.5.5zm-4.5-1h4v-4h-4z"/><path d="m57 36h-5c-.276 0-.5-.223-.5-.5v-5c0-.275.224-.5.5-.5h5c.276 0 .5.225.5.5v5c0 .277-.224.5-.5.5zm-4.5-1h4v-4h-4z"/></g></g></svg>