<?xml version="1.0" encoding="iso-8859-1"?>
<!-- Generator: Adobe Illustrator 19.0.0, SVG Export Plug-In . SVG Version: 6.00 Build 0)  -->
<svg version="1.1" id="Capa_1" xmlns="http://www.w3.org/2000/svg" xmlns:xlink="http://www.w3.org/1999/xlink" x="0px" y="0px"
	 viewBox="0 0 512 512" style="enable-background:new 0 0 512 512;" xml:space="preserve">
<rect x="56" y="10" style="fill:#E6FFFF;" width="400" height="122"/>
<g>
	<rect x="10" y="462" style="fill:#81B3E6;" width="161" height="40"/>
	<rect x="341" y="462" style="fill:#81B3E6;" width="161" height="40"/>
</g>
<path style="fill:#4696E6;" d="M10,132v330h492V132H10z"/>
<g>
	<rect x="50" y="212" style="fill:#63C3E6;" width="100" height="80"/>
	<rect x="361" y="212" style="fill:#63C3E6;" width="100" height="80"/>
	<rect x="206" y="212" style="fill:#63C3E6;" width="100" height="80"/>
</g>
<path style="fill:#B53C1D;" d="M171,403.99c0-34.236,38.056-61.99,85-61.99s85,27.754,85,61.99V502H171V403.99z"/>
<path d="M502,122h-36V10c0-5.523-4.477-10-10-10H56c-5.523,0-10,4.477-10,10v112H10c-5.523,0-10,4.477-10,10v370
	c0,5.523,4.477,10,10,10h492c5.523,0,10-4.477,10-10V132C512,126.477,507.523,122,502,122z M66,20h380v102H66V20z M492,142v20H296
	c-5.51,0-10,4.49-10,10s4.49,10,10,10h196v270H351v-48.01c0-19.836-10.3-38.273-29.003-51.913C304.244,339.13,280.806,332,256,332
	s-48.244,7.13-65.997,20.077C171.3,365.717,161,384.153,161,403.99V452H20V182h196c5.51,0,10-4.49,10-10s-4.49-10-10-10H20v-20H492z
	 M331,492h-65V352.475c16.776,1.556,32.208,7.007,44.212,15.76C323.617,378.013,331,390.71,331,403.99V492z M20,472h141v20H20V472z
	 M181,403.99c0-13.28,7.383-25.977,20.788-35.754c12.004-8.754,27.435-14.204,44.212-15.76V492h-65V403.99z M492,492H351v-20h141
	V492z"/>
<path d="M135.817,42.996c-3.87-3.33-9.016-4.995-15.435-4.995h-18.63c-2.447,0-5.221,1.476-5.221,4.23c0,0,0,57.01,0,57.24
	c0,3.301,4.429,4.32,7.02,4.32c2.648,0,7.02-0.849,7.02-4.32v-19.44h8.91c6.66,0,12.016-1.695,16.065-5.085
	c4.822-4.037,6.075-10.569,6.074-16.565C141.62,52.795,140.216,46.781,135.817,42.996z M127.583,60.231c0,6-2.7,9-8.101,9h-8.91
	v-18.99h8.91c5.4,0,8.101,3.001,8.101,9C127.583,59.241,127.583,60.231,127.583,60.231z"/>
<path d="M191.931,43.131c-4.021-3.42-9.391-5.13-16.109-5.13c-6.66,0-12.001,1.71-16.021,5.13c-4.021,3.42-6.029,8.791-6.029,16.11
	v23.85c0,7.321,2.009,12.69,6.029,16.11s9.36,5.13,16.021,5.13c6.719,0,12.089-1.71,16.109-5.13c4.02-3.42,6.03-8.789,6.03-16.11
	v-23.85C197.961,51.921,195.95,46.551,191.931,43.131z M183.921,83.091c0,6-2.7,9-8.1,9c-5.341,0-8.01-3-8.01-9v-23.85
	c0-5.999,2.669-9,8.01-9c5.399,0,8.1,3.001,8.1,9V83.091z"/>
<path d="M248.271,91.551H227.75c0,0,0-49.095,0-49.319c0-3.34-4.452-4.231-7.02-4.231c-2.629,0-7.02,0.841-7.02,4.23
	c0,0,0,57.071,0,57.24c0,3.045,3.57,4.32,6.12,4.32c0,0,28.375,0,28.44,0c3.051,0,4.05-3.67,4.05-6.12
	C252.32,95.21,251.309,91.551,248.271,91.551z"/>
<path d="M276.711,39.079c-1.499-0.815-3.509-1.078-4.952-1.078c-2.624,0-7.019,0.862-7.019,4.23c0,0,0,56.996,0,57.239
	c0,3.367,4.414,4.321,7.02,4.321c2.671,0,7.02-0.901,7.02-4.32c0,0,0-57.022,0-57.24C278.779,40.731,277.908,39.729,276.711,39.079z
	"/>
<path d="M316.668,50.241c5.16,0,7.83,2.7,8.011,8.1c0.18,2.821,2.52,4.23,7.02,4.23c2.521,0,4.32-0.464,5.4-1.395
	c1.08-0.929,1.62-2.684,1.62-5.264c0-12.264-11.788-17.91-22.59-17.91c-6.422,0-11.626,1.71-15.615,5.13
	c-3.991,3.42-5.985,8.791-5.985,16.11v23.85c0,7.321,1.994,12.69,5.985,16.11c3.989,3.42,9.193,5.13,15.615,5.13
	c11.235,0,22.59-6.433,22.59-18.809c0-4.61-2.579-6.661-7.11-6.661c-4.381,0-6.69,1.411-6.93,4.23
	c-0.121,1.259-0.256,2.249-0.405,2.969c-0.834,4.024-3.446,6.031-7.515,6.031c-5.461,0-8.19-3-8.19-9v-23.85
	C308.568,53.242,311.269,50.241,316.668,50.241z"/>
<path d="M390.738,50.241c3.145,0,4.229-3.65,4.229-6.21c0-2.602-1.121-6.03-4.229-6.03c0,0-32.029,0-32.04,0
	c-2.57,0-6.12,1.168-6.12,4.32c0,0,0,56.903,0,57.15c0,3.135,3.52,4.321,6.12,4.321c0,0,31.88,0,32.039,0
	c3.048,0,4.23-3.504,4.23-6.03c0-2.581-1.091-6.21-4.229-6.21h-24.12v-15.3c0,0,13.426,0,13.5,0c2.816,0,4.23-2.812,4.23-5.31
	c0-2.538-1.331-5.49-4.229-5.49h-13.5v-15.21C366.618,50.241,390.633,50.241,390.738,50.241z"/>
<path d="M256,182c5.51,0,10-4.49,10-10s-4.49-10-10-10c-5.51,0-10,4.49-10,10S250.49,182,256,182z"/>
<path d="M150,202H50c-5.523,0-10,4.477-10,10v80c0,5.523,4.477,10,10,10h100c5.523,0,10-4.477,10-10v-80
	C160,206.477,155.523,202,150,202z M60,222h30v60H60V222z M140,282h-30v-60h30V282z"/>
<path d="M351,212v80c0,5.523,4.477,10,10,10h100c5.523,0,10-4.477,10-10v-80c0-5.523-4.477-10-10-10H361
	C355.477,202,351,206.477,351,212z M451,282h-30v-60h30V282z M371,222h30v60h-30V222z"/>
<path d="M306,202H206c-5.523,0-10,4.477-10,10v80c0,5.523,4.477,10,10,10h100c5.523,0,10-4.477,10-10v-80
	C316,206.477,311.523,202,306,202z M216,222h30v60h-30V222z M296,282h-30v-60h30V282z"/>
<circle cx="298" cy="434" r="10"/>
<circle cx="213" cy="434" r="10"/>
<g>
</g>
<g>
</g>
<g>
</g>
<g>
</g>
<g>
</g>
<g>
</g>
<g>
</g>
<g>
</g>
<g>
</g>
<g>
</g>
<g>
</g>
<g>
</g>
<g>
</g>
<g>
</g>
<g>
</g>
</svg>
